<svg width="56" height="56" viewBox="0 0 56 56" fill="none" xmlns="http://www.w3.org/2000/svg">
<rect x="0.5" y="0.5" width="55" height="55" rx="7.5" fill="white" stroke="#121212"/>
<path fill-rule="evenodd" clip-rule="evenodd" d="M20.4611 23.054C19.7445 23.054 19.0349 23.1948 18.3729 23.4685C17.7108 23.7421 17.1092 24.1432 16.6025 24.6488C16.0958 25.1544 15.6938 25.7546 15.4196 26.4153C15.1454 27.0759 15.0042 27.7839 15.0042 28.4989C15.0042 29.214 15.1454 29.922 15.4196 30.5826C15.6938 31.2432 16.0958 31.8435 16.6025 32.3491C17.1092 32.8547 17.7108 33.2558 18.3729 33.5294C19.0349 33.8031 19.7445 33.9439 20.4611 33.9439H25.918V23.054H20.4611ZM25.918 19.892H20.4611C19.0136 19.892 17.6253 19.3182 16.6018 18.2969C15.5782 17.2756 15.0032 15.8904 15.0032 14.446C15.0032 13.0016 15.5782 11.6164 16.6018 10.5951C17.6253 9.57377 19.0136 9 20.4611 9H25.918V19.892ZM29.0869 9V19.892H34.5438C35.9728 19.864 37.3337 19.2779 38.3343 18.2596C39.3349 17.2413 39.8954 15.8721 39.8954 14.446C39.8954 13.0199 39.3349 11.6507 38.3343 10.6324C37.3337 9.61415 35.9728 9.02805 34.5438 9H29.0869ZM34.5438 23.0519C33.1115 23.0517 31.7364 23.6135 30.7155 24.616C29.6946 25.6185 29.1097 26.9814 29.0869 28.4104V28.5854C29.1044 29.6583 29.4393 30.7022 30.0494 31.5859C30.6596 32.4696 31.5178 33.1537 32.5163 33.5523C33.5148 33.9509 34.6091 34.0461 35.6618 33.8261C36.7144 33.6062 37.6784 33.0807 38.4327 32.3158C39.187 31.5509 39.698 30.5807 39.9015 29.527C40.1049 28.4732 39.9918 27.383 39.5763 26.3932C39.1608 25.4034 38.4614 24.5582 37.5661 23.9637C36.6707 23.3693 35.6193 23.052 34.5438 23.0519ZM20.4611 37.1059C19.3813 37.1055 18.3257 37.4246 17.4277 38.0229C16.5297 38.6211 15.8297 39.4717 15.4162 40.467C15.0026 41.4623 14.8942 42.5576 15.1046 43.6143C15.315 44.6711 15.8348 45.6419 16.5982 46.4039C17.3615 47.1658 18.3342 47.6848 19.3932 47.8952C20.4522 48.1055 21.55 47.9978 22.5476 47.5856C23.5452 47.1734 24.3979 46.4752 24.9979 45.5794C25.5978 44.6836 25.918 43.6304 25.918 42.5529V37.1059H20.4611Z" fill="black"/>
</svg>
