<svg width="57" height="56" viewBox="0 0 57 56" fill="none" xmlns="http://www.w3.org/2000/svg">
<rect x="0.5" y="0.5" width="56" height="55" rx="7.5" fill="white" stroke="#121212"/>
<path d="M48.9463 25.085C47.0825 26.6422 44.6774 27.397 42.2581 27.1839C39.8387 26.9708 37.6026 25.8073 36.0396 23.9483C32.7763 20.0617 33.2896 14.25 37.158 11.0417L38.093 10.345C36.5761 11.9897 35.7097 14.1304 35.6558 16.3672C35.6018 18.604 36.3639 20.784 37.7996 22.5C40.788 26.0567 45.958 26.7533 49.7896 24.2783L48.9463 25.085ZM45.683 32.5833C44.3026 33.7473 42.706 34.6272 40.9847 35.1725C39.2634 35.7179 37.4514 35.9179 35.6526 35.7612C33.8539 35.6045 32.1037 35.0941 30.5027 34.2593C28.9017 33.4245 27.4813 32.2818 26.323 30.8967C21.428 25.085 22.198 16.4133 28.0096 11.5L29.6963 10.3267C27.5184 12.7936 26.2984 15.9603 26.258 19.2508C26.2176 22.5413 27.3596 25.737 29.4763 28.2567C33.913 33.5 41.4663 34.655 47.168 31.1533L45.683 32.5833ZM43.6113 41.53C35.4713 48.3683 23.3163 47.305 16.478 39.1467C9.65798 31.0067 10.7213 18.8333 18.8613 12.0317L20.8963 10.5833C14.4613 17.55 14.058 28.4217 20.3463 35.92C26.6346 43.4 37.4146 44.9033 45.4263 39.7883L43.6113 41.53Z" fill="#121212"/>
</svg>
