<svg width="57" height="56" viewBox="0 0 57 56" fill="none" xmlns="http://www.w3.org/2000/svg">
<rect x="0.5" y="0.5" width="56" height="55" rx="7.5" fill="white" stroke="#121212"/>
<path d="M12.464 16.216H22.352C24.784 16.216 26.736 16.824 28.144 17.976C29.552 19.128 30.288 20.856 30.288 23.16C30.288 25.336 29.616 27.064 28.304 28.344C26.96 29.624 25.168 30.232 22.896 30.232H16.464V39H12.464V16.216ZM16.464 19.544V27H22.032C24.912 27 26.384 25.752 26.384 23.256C26.384 20.792 24.816 19.544 21.68 19.544H16.464ZM46.3518 27.288H42.8638C42.6398 25.56 41.4558 24.664 39.2798 24.664C38.3198 24.664 37.6158 24.856 37.1038 25.176C36.5918 25.528 36.3358 26.008 36.3358 26.584C36.3358 26.776 36.3358 26.968 36.3678 27.096C36.3998 27.256 36.4638 27.384 36.5598 27.512C36.6558 27.64 36.7518 27.736 36.8158 27.8C36.8798 27.896 37.0398 27.992 37.2318 28.056C37.4238 28.152 37.5518 28.216 37.6798 28.28C37.8078 28.344 37.9998 28.408 38.2878 28.472C38.5438 28.536 38.7678 28.6 38.9278 28.632C39.0878 28.696 39.3438 28.76 39.7278 28.824C40.0798 28.888 40.3678 28.952 40.5598 28.984C41.3918 29.176 41.9678 29.336 42.3518 29.432C42.7358 29.528 43.2798 29.72 43.9838 30.008C44.6878 30.296 45.2318 30.584 45.5838 30.904C45.9038 31.224 46.2238 31.64 46.5118 32.184C46.7998 32.728 46.9598 33.336 46.9598 34.04C46.9598 35.704 46.2878 37.048 45.0078 38.008C43.6958 39 41.9358 39.48 39.7598 39.48C37.3918 39.48 35.5998 39 34.3518 38.008C33.0718 37.048 32.3997 35.608 32.3358 33.72H35.8238C36.0158 35.8 37.3278 36.824 39.8238 36.824C40.8798 36.824 41.7438 36.632 42.3838 36.184C43.0238 35.736 43.3758 35.16 43.3758 34.424C43.3758 34.072 43.2798 33.752 43.1198 33.496C42.9598 33.24 42.7038 33.048 42.3518 32.856C41.9678 32.664 41.6158 32.536 41.2958 32.44C40.9758 32.344 40.5278 32.216 39.9838 32.088L39.7917 32.056C39.7278 32.056 39.6958 32.024 39.6318 32.024C39.5677 32.024 39.5038 31.992 39.4398 31.96C37.0718 31.384 35.5998 30.936 34.9598 30.616C33.4238 29.912 32.6878 28.696 32.6878 27C32.6878 25.464 33.2638 24.248 34.4798 23.352C35.6638 22.456 37.3278 22.008 39.4398 22.008C41.4558 22.008 43.1198 22.456 44.3998 23.32C45.6798 24.216 46.3518 25.528 46.3518 27.288Z" fill="#121212"/>
</svg>
