<svg width="56" height="56" viewBox="0 0 56 56" fill="none" xmlns="http://www.w3.org/2000/svg">
<rect x="0.5" y="0.5" width="55" height="55" rx="7.5" fill="white" stroke="#121212"/>
<path d="M14.464 16.216H24.352C26.784 16.216 28.736 16.824 30.144 17.976C31.552 19.128 32.288 20.856 32.288 23.16C32.288 25.336 31.616 27.064 30.304 28.344C28.96 29.624 27.168 30.232 24.896 30.232H18.464V39H14.464V16.216ZM18.464 19.544V27H24.032C26.912 27 28.384 25.752 28.384 23.256C28.384 20.792 26.816 19.544 23.68 19.544H18.464ZM44.6078 22.168V25.656C43.9678 25.592 43.5198 25.56 43.3278 25.56C40.1278 25.56 38.5598 27.64 38.5598 31.736V39H34.9438V22.488H38.3678V25.784C39.5198 23.352 41.3758 22.104 43.9038 22.104L44.6078 22.168Z" fill="#121212"/>
</svg>
