<svg width="56" height="56" viewBox="0 0 56 56" fill="none" xmlns="http://www.w3.org/2000/svg">
<rect x="0.5" y="0.5" width="55" height="55" rx="7.5" fill="white" stroke="#121212"/>
<g clip-path="url(#clip0_104_11)">
<path d="M44.7233 13.8791L37.3174 10.3163C36.8985 10.1133 36.4268 10.046 35.9679 10.1236C35.509 10.2013 35.0857 10.42 34.7569 10.7494L20.5718 23.6925L14.3899 19.0046C14.1115 18.7918 13.7672 18.6834 13.4171 18.6984C13.067 18.7135 12.7332 18.8509 12.474 19.0868L10.494 20.8913C10.3393 21.0311 10.2155 21.2018 10.1306 21.3923C10.0456 21.5828 10.0015 21.789 10.001 21.9976C10.0005 22.2062 10.0435 22.4126 10.1275 22.6035C10.2114 22.7945 10.3344 22.9658 10.4884 23.1064L15.8502 27.999L10.4884 32.8916C10.3344 33.0323 10.2114 33.2036 10.1275 33.3945C10.0435 33.5855 10.0005 33.7919 10.001 34.0005C10.0015 34.209 10.0456 34.4152 10.1306 34.6057C10.2155 34.7963 10.3393 34.9669 10.494 35.1068L12.474 36.9113C12.7332 37.1472 13.067 37.2846 13.4171 37.2996C13.7672 37.3146 14.1115 37.2062 14.3899 36.9934L20.5718 32.2999L34.7637 45.2486C35.0911 45.5783 35.5135 45.7973 35.9716 45.875C36.4298 45.9526 36.9007 45.8851 37.3185 45.6818L44.7312 42.1133C45.1131 41.9302 45.4353 41.6426 45.6604 41.2837C45.8854 40.9249 46.004 40.5096 46.0024 40.086V15.9041C46.0024 15.0424 45.504 14.2515 44.7255 13.8769L44.7233 13.8791ZM37.0058 36.1744L26.2362 28.0001L37.0058 19.8259V36.1744Z" fill="black"/>
</g>
<defs>
<clipPath id="clip0_104_11">
<rect width="36" height="36" fill="white" transform="translate(10 10)"/>
</clipPath>
</defs>
</svg>
