<svg width="56" height="56" viewBox="0 0 56 56" fill="none" xmlns="http://www.w3.org/2000/svg">
<rect x="0.5" y="0.5" width="55" height="55" rx="7.5" fill="white" stroke="#121212"/>
<path d="M7.808 39L15.936 27.192L8.384 16.216H13.152L18.336 24.28L23.744 16.216H28.224L20.672 27.192L28.768 39H23.904L18.208 30.296L12.416 39H7.808ZM46.318 16.216V39H42.894V36.728C41.838 38.552 40.078 39.448 37.614 39.448C35.278 39.448 33.422 38.68 32.046 37.08C30.67 35.512 29.998 33.4 29.998 30.712C29.998 28.088 30.67 25.976 32.014 24.408C33.358 22.84 35.182 22.04 37.486 22.04C39.79 22.04 41.55 22.904 42.734 24.632V16.216H46.318ZM38.158 24.984C36.75 24.984 35.662 25.496 34.862 26.52C34.062 27.544 33.678 28.92 33.678 30.648C33.678 32.472 34.062 33.912 34.894 34.936C35.726 35.992 36.846 36.504 38.286 36.504C39.694 36.504 40.814 35.992 41.614 34.968C42.414 33.944 42.83 32.536 42.83 30.712C42.83 28.92 42.414 27.512 41.582 26.488C40.75 25.496 39.63 24.984 38.158 24.984Z" fill="#121212"/>
</svg>
